<svg width="150" height="150" viewBox="0 0 150 150" fill="none" xmlns="http://www.w3.org/2000/svg">
<path d="M102 65.67C101.762 65.1795 101.665 64.6324 101.72 64.09L103.3 44.91C103.391 43.8477 103.24 42.7787 102.859 41.783C102.478 40.7872 101.877 39.8905 101.1 39.16C100.33 38.4227 99.402 37.8709 98.3864 37.5468C97.3708 37.2228 96.2947 37.1349 95.24 37.29C93.5904 37.5137 91.9987 38.0499 90.55 38.87C90.44 38.72 90.31 38.57 90.2 38.41C88.7595 36.6995 86.7009 35.628 84.4735 35.4295C82.246 35.2309 80.0304 35.9213 78.31 37.35L65.45 48.17V45.74C65.4456 45.5616 65.4982 45.3865 65.6 45.24L68.29 41.32C68.4211 41.1411 68.5147 40.9376 68.5653 40.7217C68.616 40.5058 68.6225 40.2819 68.5847 40.0634C68.5468 39.8449 68.4653 39.6362 68.345 39.4499C68.2247 39.2636 68.0681 39.1035 67.8845 38.9791C67.7009 38.8547 67.4942 38.7685 67.2765 38.7258C67.0589 38.6832 66.8349 38.6848 66.6179 38.7306C66.401 38.7764 66.1955 38.8655 66.0137 38.9926C65.8319 39.1196 65.6776 39.282 65.56 39.47L62.87 43.39C62.3906 44.0795 62.1357 44.9002 62.14 45.74V50.92L51.86 59.53V44C51.8436 42.2141 52.3817 40.4672 53.4 39L62.8 25.2C63.5685 24.0573 64.7589 23.2661 66.11 23C66.7738 22.8691 67.4573 22.8742 68.1191 23.0152C68.7809 23.1561 69.4071 23.4299 69.96 23.82C71.087 24.5921 71.8633 25.7782 72.12 27.12C72.2552 27.7885 72.2521 28.4775 72.1111 29.1448C71.9701 29.812 71.6941 30.4434 71.3 31L69.56 33.53C69.4358 33.7092 69.3486 33.9114 69.3034 34.1247C69.2583 34.338 69.2561 34.5582 69.2971 34.7724C69.3381 34.9865 69.4213 35.1904 69.542 35.372C69.6627 35.5536 69.8184 35.7093 70 35.83C70.1784 35.954 70.3798 36.041 70.5924 36.086C70.8049 36.131 71.0243 36.1331 71.2376 36.0921C71.451 36.0511 71.654 35.9679 71.8347 35.8473C72.0154 35.7267 72.1702 35.5713 72.29 35.39L74 32.86C74.9388 31.4845 75.4496 29.8621 75.4683 28.197C75.487 26.5318 75.0127 24.8983 74.1051 23.5021C73.1974 22.1059 71.8971 21.0095 70.3676 20.3507C68.8382 19.6919 67.1481 19.5003 65.51 19.8C63.3075 20.2133 61.3586 21.4827 60.09 23.33L50.67 37.13C49.2814 39.1507 48.545 41.5482 48.56 44V62.3L43.56 66.44C41.8077 67.9106 40.4324 69.7788 39.5487 71.8888C38.665 73.9989 38.2986 76.2896 38.48 78.57L39.48 91.91C39.515 92.3238 39.7039 92.7095 40.0094 92.9909C40.3148 93.2723 40.7147 93.429 41.13 93.43H41.27C41.4869 93.4136 41.6985 93.3544 41.8924 93.256C42.0864 93.1575 42.259 93.0216 42.4003 92.8562C42.5415 92.6907 42.6487 92.499 42.7156 92.292C42.7825 92.085 42.8078 91.8668 42.79 91.65L41.8 78.27C41.6572 76.513 41.9388 74.7474 42.621 73.1219C43.3032 71.4965 44.366 70.0588 45.72 68.93L80.44 39.86C81.4927 39.0425 82.8213 38.665 84.1465 38.8068C85.4718 38.9486 86.6905 39.5987 87.5464 40.6203C88.4023 41.642 88.8288 42.9557 88.7362 44.2853C88.6437 45.6149 88.0392 46.8568 87.05 47.75L69 62.9C67.8378 63.1757 66.7622 63.7358 65.87 64.53L57 72.21C56.6698 72.4991 56.468 72.9075 56.4389 73.3454C56.4098 73.7833 56.5559 74.2148 56.845 74.545C57.1341 74.8752 57.5425 75.077 57.9804 75.1061C58.4183 75.1352 58.8498 74.9891 59.18 74.7L68 67C68.739 66.357 69.6855 66.0029 70.665 66.0029C71.6445 66.0029 72.591 66.357 73.33 67L86.72 78.35C87.7529 79.2396 88.3926 80.5011 88.5 81.86C88.558 82.5326 88.4808 83.21 88.273 83.8523C88.0652 84.4946 87.731 85.0888 87.29 85.6C86.6431 86.3617 85.7827 86.912 84.82 87.18L75.46 79.24C74.1201 78.0843 72.4095 77.4486 70.64 77.4486C68.8705 77.4486 67.16 78.0843 65.82 79.24L57 87C56.6698 87.2891 56.468 87.6975 56.4389 88.1354C56.4098 88.5733 56.5559 89.0048 56.845 89.335C57.1341 89.6652 57.5425 89.867 57.9804 89.8961C58.4183 89.9252 58.8498 89.7791 59.18 89.49L68 81.77C68.7332 81.115 69.6819 80.7529 70.665 80.7529C71.6481 80.7529 72.5969 81.115 73.33 81.77L86.72 93.11C87.232 93.5479 87.6527 94.0824 87.9581 94.6829C88.2635 95.2835 88.4477 95.9383 88.5 96.61C88.5615 97.2828 88.4859 97.9611 88.278 98.6039C88.07 99.2467 87.7339 99.8407 87.29 100.35C86.8533 100.864 86.3193 101.287 85.7187 101.594C85.118 101.901 84.4626 102.087 83.79 102.14C83.1084 102.207 82.4203 102.133 81.7683 101.924C81.1164 101.714 80.5145 101.372 80 100.92L71.73 93.92C71.4156 93.6508 71.0109 93.5105 70.5973 93.5272C70.1837 93.5439 69.7917 93.7163 69.5 94.01L67.03 96.47C66.7258 96.7835 66.5556 97.2031 66.5556 97.64C66.5556 98.0768 66.7258 98.4965 67.03 98.81C67.3423 99.1166 67.7624 99.2884 68.2 99.2884C68.6376 99.2884 69.0578 99.1166 69.37 98.81L70.76 97.42L77.87 103.48C79.3979 104.769 81.3313 105.477 83.33 105.48C83.55 105.48 83.79 105.48 84.01 105.48C85.6753 105.348 87.2639 104.725 88.5743 103.689C89.8846 102.653 90.8576 101.251 91.3698 99.6608C91.8819 98.0707 91.9101 96.3644 91.4508 94.7583C90.9915 93.1522 90.0654 91.7188 88.79 90.64L87.56 89.64C88.3825 89.1543 89.1191 88.5359 89.74 87.81C91.1808 86.0993 91.8847 83.8871 91.6972 81.6583C91.5098 79.4296 90.4463 77.366 88.74 75.92L82.86 70.92L86.52 52.5L89.18 50.26C90.8995 48.8227 91.9784 46.762 92.18 44.53C92.2705 43.6318 92.2029 42.7248 91.98 41.85C93.1288 41.1534 94.4087 40.7006 95.74 40.52C96.3032 40.4447 96.8761 40.4954 97.4174 40.6683C97.9586 40.8412 98.4548 41.1321 98.87 41.52C99.2835 41.9154 99.6005 42.4007 99.7964 42.9383C99.9924 43.4758 100.062 44.0512 100 44.62L98.45 63.8C98.3548 64.9358 98.5691 66.0762 99.07 67.1L102 73.18C103.828 76.9488 104.807 81.0728 104.867 85.2611C104.928 89.4494 104.068 93.6 102.35 97.42L100.46 101.63C100.37 101.827 100.32 102.041 100.313 102.258C100.306 102.474 100.343 102.691 100.42 102.893C100.497 103.096 100.614 103.281 100.763 103.439C100.912 103.596 101.092 103.722 101.29 103.81C101.508 103.906 101.742 103.957 101.98 103.96C102.3 103.961 102.613 103.867 102.878 103.689C103.144 103.51 103.35 103.257 103.47 102.96L105.37 98.76C107.278 94.5038 108.233 89.8819 108.167 85.2179C108.102 80.554 107.017 75.9608 104.99 71.76L102 65.67ZM80 68.34L75.45 64.46C74.8907 63.9859 74.268 63.5921 73.6 63.29L82.45 55.87L80 68.34Z" fill="#FF5F46"/>
<path d="M99.73 107.24C99.5319 107.15 99.318 107.101 99.1007 107.095C98.8834 107.089 98.6671 107.126 98.4642 107.204C98.2614 107.282 98.0761 107.4 97.9191 107.55C97.7622 107.701 97.6367 107.881 97.55 108.08L93.34 117.48C93.2495 117.699 93.1987 117.933 93.19 118.17V130.67C93.19 131.108 93.3638 131.527 93.6733 131.837C93.9827 132.146 94.4024 132.32 94.84 132.32C95.2776 132.32 95.6973 132.146 96.0067 131.837C96.3162 131.527 96.49 131.108 96.49 130.67V118.52L100.57 109.42C100.658 109.222 100.707 109.008 100.712 108.791C100.718 108.574 100.68 108.358 100.602 108.156C100.524 107.953 100.407 107.768 100.257 107.611C100.108 107.454 99.9285 107.328 99.73 107.24Z" fill="#FF5F46"/>
<path d="M90.17 29.82C90.6078 29.8174 91.027 29.643 91.3374 29.3344C91.6479 29.0259 91.8248 28.6077 91.83 28.17V21.17C91.7976 20.7533 91.6092 20.3641 91.3024 20.0803C90.9956 19.7964 90.593 19.6387 90.175 19.6387C89.7571 19.6387 89.3545 19.7964 89.0477 20.0803C88.7409 20.3641 88.5524 20.7533 88.52 21.17V28.17C88.5173 28.3874 88.5582 28.6032 88.6402 28.8046C88.7221 29.006 88.8436 29.1889 88.9973 29.3427C89.1511 29.4965 89.334 29.6179 89.5354 29.6999C89.7368 29.7818 89.9526 29.8227 90.17 29.82Z" fill="#FF5F46"/>
<path d="M97.2 31.47C97.4425 31.6017 97.7141 31.6704 97.99 31.67C98.2827 31.6682 98.57 31.5908 98.824 31.4454C99.078 31.3 99.2902 31.0915 99.44 30.84L102.83 24.76C102.981 24.5739 103.089 24.3573 103.148 24.1252C103.206 23.8931 103.214 23.6509 103.169 23.4157C103.125 23.1804 103.03 22.9576 102.891 22.7627C102.752 22.5678 102.572 22.4056 102.364 22.2872C102.156 22.1688 101.924 22.0971 101.686 22.0771C101.447 22.0571 101.207 22.0893 100.982 22.1714C100.757 22.2535 100.553 22.3835 100.383 22.5525C100.214 22.7215 100.083 22.9254 100 23.15L96.61 29.23C96.3944 29.606 96.3355 30.0518 96.4459 30.4709C96.5563 30.8901 96.8272 31.2489 97.2 31.47Z" fill="#FF5F46"/>
<path d="M111.29 30.92C111.176 30.7334 111.025 30.5715 110.847 30.4439C110.67 30.3164 110.468 30.2257 110.255 30.1772C110.041 30.1288 109.82 30.1235 109.605 30.1618C109.389 30.2 109.184 30.281 109 30.4L103.08 34.07C102.709 34.301 102.445 34.6698 102.346 35.0954C102.246 35.5209 102.32 35.9686 102.55 36.34C102.699 36.5792 102.906 36.7758 103.154 36.9108C103.401 37.0457 103.678 37.1143 103.96 37.11C104.262 37.1035 104.558 37.0209 104.82 36.87L110.74 33.19C111.107 32.9554 111.368 32.5868 111.467 32.1628C111.566 31.7387 111.495 31.2928 111.27 30.92H111.29Z" fill="#FF5F46"/>
<path d="M48.2 109.84C45.6279 106.579 43.9803 102.687 43.43 98.57C43.357 98.1488 43.1244 97.772 42.7806 97.5181C42.4367 97.2641 42.0082 97.1526 41.5842 97.2068C41.1602 97.2609 40.7734 97.4765 40.5044 97.8087C40.2353 98.1408 40.1048 98.564 40.14 98.99C40.7647 103.705 42.655 108.163 45.61 111.89L52.41 120.43V130.54C52.41 130.978 52.5838 131.397 52.8933 131.707C53.2027 132.016 53.6224 132.19 54.06 132.19C54.4976 132.19 54.9173 132.016 55.2267 131.707C55.5362 131.397 55.71 130.978 55.71 130.54V119.88C55.6975 119.519 55.5755 119.17 55.36 118.88L48.2 109.84Z" fill="#FF5F46"/>
</svg>
